<svg width="40" height="30" viewBox="0 0 40 30" fill="none" xmlns="http://www.w3.org/2000/svg">
<g clip-path="url(#clip0_80_204)">
<path d="M27.4237 17.7937C26.2215 17.5377 25.2248 17.1383 24.3104 16.5546C21.4334 14.7011 19.9127 11.158 20.5703 7.82993C21.269 4.29704 23.9302 1.62434 27.3518 0.948482C32.5098 -0.0653019 36.7944 3.53927 37.565 8.08594C37.9863 10.5641 37.6164 13.0217 36.9177 15.3975C35.2737 21.0603 31.472 24.6444 25.9646 26.5389C25.6667 26.6413 25.3481 26.7437 25.0399 26.7744C24.2384 26.8461 23.6322 26.4979 23.2726 25.7913C22.913 25.0848 23.026 24.4089 23.5089 23.7842C24.2384 22.8421 25.0091 21.9308 25.6564 20.9375C26.3037 19.9544 26.8175 18.8894 27.4237 17.7937Z" fill="#F5FBD7"/>
<path d="M7.69609 17.8656C6.9152 17.5789 6.24733 17.3843 5.63083 17.0976C2.25038 15.5308 0.328973 11.9365 0.832445 8.16807C1.30509 4.62495 4.15125 1.64503 7.68582 0.958936C12.9569 -0.0753286 17.4162 3.69309 17.8991 8.33192C18.6492 15.5718 15.3817 23.1905 6.92547 26.3138C6.5453 26.4572 6.15485 26.5801 5.75413 26.7029C4.94241 26.9487 4.15124 26.662 3.68887 25.9861C3.2265 25.3103 3.27787 24.491 3.80189 23.8152C4.52114 22.8833 5.29176 21.9822 5.9288 20.9991C6.5864 19.9956 7.11042 18.9203 7.69609 17.8656Z" fill="#F5FBD7"/>
</g>
<g clip-path="url(#clip1_80_204)">
<path d="M30.1879 20.4452L29.8612 21.0358C29.6879 21.349 29.5189 21.6664 29.3498 21.9839C28.9455 22.7433 28.5406 23.5037 28.0746 24.2114C27.5807 24.9692 27.0117 25.6874 26.4591 26.3848C26.271 26.6222 26.0849 26.8571 25.9043 27.0904C25.7045 27.3488 25.6004 27.5927 25.5706 27.8216C25.5413 28.0468 25.5792 28.2914 25.7182 28.5645C25.8609 28.8449 26.0384 29.0283 26.2352 29.1386C26.4308 29.2483 26.6783 29.3043 26.9928 29.2766C27.2356 29.252 27.5029 29.1688 27.802 29.0661C33.1741 27.2182 36.8441 23.7469 38.4375 18.2581L38.438 18.2564C39.1248 15.9213 39.476 13.5455 39.0721 11.1697L39.0721 11.1695C38.3431 6.86836 34.2996 3.48567 29.4484 4.43906C26.2305 5.07479 23.7211 7.58819 23.0608 10.9269L30.1879 20.4452ZM30.1879 20.4452L29.5278 20.3047M30.1879 20.4452L29.5278 20.3047M29.5278 20.3047C28.3781 20.0598 27.4387 19.6815 26.5803 19.1337M29.5278 20.3047L26.5803 19.1337M26.5803 19.1337C23.874 17.3897 22.4436 14.0508 23.0608 10.9269L26.5803 19.1337Z" stroke="#00ADEE"/>
<path d="M10.4168 20.5976L10.1332 21.1083C9.96762 21.4066 9.80378 21.7129 9.63813 22.0226C9.23568 22.775 8.82257 23.5473 8.34771 24.2721M10.4168 20.5976L9.21872 20.6955C9.23209 20.6713 9.2455 20.6471 9.25896 20.6229L9.69609 20.8656L9.52375 21.335C9.50027 21.3263 9.47681 21.3178 9.45335 21.3093C9.3635 21.4755 9.2745 21.6419 9.18558 21.8081C8.78745 22.5525 8.39114 23.2935 7.9288 23.9991C7.46767 24.7107 6.93654 25.3794 6.40558 26.0479C6.20303 26.3029 6.0005 26.5579 5.80189 26.8152C5.27787 27.491 5.2265 28.3103 5.68887 28.9861C6.15124 29.662 6.94241 29.9487 7.75413 29.7029C8.15485 29.5801 8.5453 29.4572 8.92547 29.3138C17.3817 26.1905 20.6492 18.5718 19.8991 11.3319M10.4168 20.5976L9.86843 20.3962C9.58964 20.2939 9.33548 20.2063 9.09828 20.1245C8.6336 19.9644 8.23398 19.8267 7.84169 19.6442L7.84109 19.6439C4.66644 18.1726 2.85252 14.7935 3.32804 11.2343L3.32805 11.2342C3.77177 7.90792 6.45333 5.09573 9.7811 4.44978L9.78209 4.44958C14.7523 3.47434 18.9478 7.02439 19.4018 11.3834M10.4168 20.5976L7.63083 20.0976C4.25038 18.5308 2.32897 14.9365 2.83244 11.1681C3.30509 7.62495 6.15125 4.64503 9.68582 3.95894C14.9569 2.92467 19.4162 6.69309 19.8991 11.3319M8.34771 24.2721C8.34748 24.2724 8.34725 24.2728 8.34702 24.2732L7.92883 23.9991L8.34841 24.271C8.34817 24.2714 8.34794 24.2717 8.34771 24.2721ZM8.34771 24.2721C7.87262 25.0051 7.31874 25.7024 6.78294 26.377C6.5837 26.6278 6.38696 26.8755 6.19771 27.1207L6.19704 27.1216C5.79313 27.6425 5.77329 28.224 6.10154 28.7038C6.44032 29.199 7.00526 29.4069 7.6083 29.2247M7.6083 29.2247C7.60805 29.2248 7.60779 29.2248 7.60754 29.2249L7.75409 29.7028L7.60924 29.2244C7.60893 29.2245 7.60861 29.2246 7.6083 29.2247ZM7.6083 29.2247C8.00805 29.1021 8.38511 28.9832 8.74905 28.846L8.75223 28.8448C16.9565 25.8146 20.1327 18.4387 19.4018 11.3834M19.4018 11.3834C19.4018 11.3835 19.4018 11.3836 19.4018 11.3837L19.8991 11.3319M19.4018 11.3834L19.8991 11.3319" stroke="#00ADEE"/>
</g>
<defs>
<clipPath id="clip0_80_204">
<rect width="37" height="26" fill="white" transform="translate(0.75 0.784668)"/>
</clipPath>
<clipPath id="clip1_80_204">
<rect width="37" height="26" fill="white" transform="translate(2.75 3.78467)"/>
</clipPath>
</defs>
</svg>
