<svg width="40" height="30" viewBox="0 0 40 30" fill="none" xmlns="http://www.w3.org/2000/svg">
<g clip-path="url(#clip0_80_194)">
<path d="M13.0763 12.7756C14.2785 13.0316 15.2752 13.431 16.1896 14.0147C19.0666 15.8682 20.5873 19.4113 19.9297 22.7394C19.231 26.2723 16.5698 28.945 13.1482 29.6209C7.99024 30.6346 3.70559 27.0301 2.93498 22.4834C2.5137 20.0053 2.8836 17.5476 3.58229 15.1719C5.22628 9.509 9.02801 5.92491 14.5354 4.03047C14.8333 3.92806 15.1519 3.82566 15.4601 3.79494C16.2616 3.72326 16.8678 4.07143 17.2274 4.77801C17.587 5.48458 17.474 6.16044 16.9911 6.78509C16.2616 7.7272 15.4909 8.63858 14.8436 9.63188C14.1963 10.6149 13.6825 11.6799 13.0763 12.7756Z" fill="#F5FBD7"/>
<path d="M32.8039 12.7037C33.5848 12.9905 34.2527 13.185 34.8692 13.4718C38.2496 15.0385 40.171 18.6328 39.6676 22.4013C39.1949 25.9444 36.3488 28.9243 32.8142 29.6104C27.5431 30.6447 23.0838 26.8763 22.6009 22.2374C21.8508 14.9976 25.1183 7.37881 33.5745 4.25553C33.9547 4.11217 34.3451 3.98928 34.7459 3.8664C35.5576 3.62064 36.3488 3.90736 36.8111 4.58322C37.2735 5.25908 37.2221 6.0783 36.6981 6.75415C35.9789 7.68602 35.2082 8.58716 34.5712 9.57022C33.9136 10.5738 33.3896 11.649 32.8039 12.7037Z" fill="#F5FBD7"/>
</g>
<g clip-path="url(#clip1_80_194)">
<path d="M10.3121 10.1241L10.6388 9.53358C10.8121 9.22035 10.9811 8.90297 11.1502 8.5854C11.5545 7.82607 11.9594 7.06561 12.4254 6.3579C12.9193 5.60009 13.4883 4.88198 14.0409 4.18449C14.229 3.94718 14.4151 3.71226 14.5957 3.47897C14.7955 3.22052 14.8996 2.97666 14.9294 2.74771C14.9587 2.52256 14.9208 2.27793 14.7818 2.0048C14.6391 1.72448 14.4616 1.54107 14.2648 1.43072C14.0692 1.32099 13.8217 1.26502 13.5072 1.29273C13.2644 1.31731 12.9971 1.4005 12.698 1.50328C7.32595 3.35118 3.65594 6.82241 2.06247 12.3113L2.06198 12.3129C1.37523 14.648 1.02403 17.0238 1.4279 19.3996L1.42794 19.3998C2.15695 23.701 6.20036 27.0837 11.0516 26.1303C14.2695 25.4945 16.7789 22.9811 17.4392 19.6425L10.3121 10.1241ZM10.3121 10.1241L10.9722 10.2647M10.3121 10.1241L10.9722 10.2647M10.9722 10.2647C12.1219 10.5095 13.0613 10.8878 13.9197 11.4356M10.9722 10.2647L13.9197 11.4356M13.9197 11.4356C16.626 13.1797 18.0564 16.5185 17.4392 19.6424L13.9197 11.4356Z" stroke="#00ADEE"/>
<path d="M30.0832 9.97175L30.3668 9.46102C30.5324 9.16278 30.6962 8.85647 30.8619 8.54678C31.2643 7.79439 31.6774 7.02205 32.1523 6.29725M30.0832 9.97175L31.2813 9.87382C31.2679 9.89801 31.2545 9.92222 31.241 9.94647L30.8039 9.70374L30.9762 9.23438C30.9997 9.243 31.0232 9.25157 31.0466 9.26008C31.1365 9.09385 31.2255 8.92744 31.3144 8.76119C31.7125 8.01679 32.1089 7.27579 32.5712 6.57022C33.0323 5.85862 33.5635 5.18994 34.0944 4.52146C34.297 4.26645 34.4995 4.01147 34.6981 3.75415C35.2221 3.0783 35.2735 2.25908 34.8111 1.58322C34.3488 0.907364 33.5576 0.620636 32.7459 0.866401C32.3451 0.989284 31.9547 1.11217 31.5745 1.25553C23.1183 4.37881 19.8508 11.9976 20.6009 19.2374M30.0832 9.97175L30.6316 10.1731C30.9104 10.2755 31.1645 10.3631 31.4017 10.4448C31.8664 10.605 32.266 10.7427 32.6583 10.9251L32.6589 10.9254C35.8336 12.3968 37.6475 15.7758 37.172 19.335L37.1719 19.3351C36.7282 22.6614 34.0467 25.4736 30.7189 26.1196L30.7179 26.1198C25.7477 27.095 21.5522 23.545 21.0982 19.1859M30.0832 9.97175L32.8692 10.4718C36.2496 12.0385 38.171 15.6328 37.6676 19.4013C37.1949 22.9444 34.3488 25.9243 30.8142 26.6104C25.5431 27.6447 21.0838 23.8763 20.6009 19.2374M32.1523 6.29725C32.1525 6.29689 32.1527 6.29654 32.153 6.29618L32.5712 6.57021L32.1516 6.29831C32.1518 6.29796 32.1521 6.2976 32.1523 6.29725ZM32.1523 6.29725C32.6274 5.56426 33.1813 4.86693 33.7171 4.19238C33.9163 3.94154 34.113 3.69385 34.3023 3.44865L34.303 3.44778C34.7069 2.92685 34.7267 2.34535 34.3985 1.86554C34.0597 1.37033 33.4947 1.16248 32.8917 1.34466M32.8917 1.34466C32.892 1.34458 32.8922 1.34451 32.8925 1.34443L32.7459 0.866539L32.8908 1.34495C32.8911 1.34485 32.8914 1.34476 32.8917 1.34466ZM32.8917 1.34466C32.4919 1.46725 32.1149 1.58613 31.751 1.72337L31.7478 1.72457C23.5435 4.75477 20.3673 12.1306 21.0982 19.1859M21.0982 19.1859C21.0982 19.1858 21.0982 19.1857 21.0982 19.1856L20.6009 19.2374M21.0982 19.1859L20.6009 19.2374" stroke="#00ADEE"/>
</g>
<defs>
<clipPath id="clip0_80_194">
<rect width="37" height="26" fill="white" transform="translate(39.75 29.7847) rotate(-180)"/>
</clipPath>
<clipPath id="clip1_80_194">
<rect width="37" height="26" fill="white" transform="translate(37.75 26.7847) rotate(-180)"/>
</clipPath>
</defs>
</svg>
