<svg width="25" height="25" viewBox="0 0 25 25" fill="none" xmlns="http://www.w3.org/2000/svg">
<path d="M3.33008 10.6497C3.33008 8.76404 3.33008 7.82123 3.91586 7.23544C4.50165 6.64966 5.44446 6.64966 7.33008 6.64966H17.3301C19.2157 6.64966 20.1585 6.64966 20.7443 7.23544C21.3301 7.82123 21.3301 8.76404 21.3301 10.6497H3.33008Z" fill="#E5F7FD"/>
<path fill-rule="evenodd" clip-rule="evenodd" d="M7.28752 6.04968H17.3734C18.2797 6.04966 19.0203 6.04965 19.605 6.12826C20.2161 6.21043 20.746 6.38825 21.1689 6.81121C21.5919 7.23416 21.7697 7.76403 21.8519 8.37519C21.9305 8.95988 21.9305 9.70047 21.9305 10.6067V17.6926C21.9305 18.5989 21.9305 19.3395 21.8519 19.9242C21.7697 20.5353 21.5919 21.0652 21.1689 21.4882C20.746 21.9111 20.2161 22.0889 19.605 22.1711C19.0203 22.2497 18.2797 22.2497 17.3734 22.2497H7.28752C6.38125 22.2497 5.64067 22.2497 5.05598 22.1711C4.44482 22.0889 3.91495 21.9111 3.49199 21.4882C3.06904 21.0652 2.89121 20.5353 2.80904 19.9242C2.73043 19.3395 2.73045 18.5989 2.73047 17.6926V10.6067C2.73045 9.70046 2.73043 8.95988 2.80904 8.37519C2.89121 7.76403 3.06904 7.23416 3.49199 6.81121C3.91495 6.38825 4.44482 6.21043 5.05598 6.12826C5.64067 6.04965 6.38125 6.04966 7.28752 6.04968ZM5.21588 7.31756C4.73778 7.38184 4.50335 7.4969 4.34052 7.65973C4.17769 7.82257 4.06262 8.05699 3.99834 8.53509C3.93174 9.03044 3.93047 9.68991 3.93047 10.6497V17.6497C3.93047 18.6095 3.93174 19.2689 3.99834 19.7643C4.06262 20.2424 4.17769 20.4768 4.34052 20.6396C4.50335 20.8025 4.73778 20.9175 5.21588 20.9818C5.71123 21.0484 6.3707 21.0497 7.33047 21.0497H17.3305C18.2902 21.0497 18.9497 21.0484 19.4451 20.9818C19.9232 20.9175 20.1576 20.8025 20.3204 20.6396C20.4833 20.4768 20.5983 20.2424 20.6626 19.7643C20.7292 19.2689 20.7305 18.6095 20.7305 17.6497V10.6497C20.7305 9.68991 20.7292 9.03044 20.6626 8.53509C20.5983 8.05699 20.4833 7.82257 20.3204 7.65973C20.1576 7.4969 19.9232 7.38184 19.4451 7.31756C18.9497 7.25096 18.2902 7.24968 17.3305 7.24968H7.33047C6.3707 7.24968 5.71123 7.25096 5.21588 7.31756Z" fill="#CCD2E3"/>
<path fill-rule="evenodd" clip-rule="evenodd" d="M7.32969 3.04968C7.66106 3.04968 7.92969 3.31831 7.92969 3.64968L7.92969 6.64968C7.92969 6.98105 7.66106 7.24968 7.32969 7.24968C6.99832 7.24968 6.72969 6.98105 6.72969 6.64968L6.72969 3.64968C6.72969 3.31831 6.99832 3.04968 7.32969 3.04968Z" fill="#CCD2E3"/>
<path fill-rule="evenodd" clip-rule="evenodd" d="M17.3297 3.04968C17.6611 3.04968 17.9297 3.31831 17.9297 3.64968L17.9297 6.64968C17.9297 6.98105 17.6611 7.24968 17.3297 7.24968C16.9983 7.24968 16.7297 6.98105 16.7297 6.64968L16.7297 3.64968C16.7297 3.31831 16.9983 3.04968 17.3297 3.04968Z" fill="#CCD2E3"/>
<path d="M7.33008 13.6497C7.33008 13.1783 7.33008 12.9426 7.47652 12.7961C7.62297 12.6497 7.85867 12.6497 8.33008 12.6497H10.3301C10.8015 12.6497 11.0372 12.6497 11.1836 12.7961C11.3301 12.9426 11.3301 13.1783 11.3301 13.6497C11.3301 14.1211 11.3301 14.3568 11.1836 14.5032C11.0372 14.6497 10.8015 14.6497 10.3301 14.6497H8.33008C7.85867 14.6497 7.62297 14.6497 7.47652 14.5032C7.33008 14.3568 7.33008 14.1211 7.33008 13.6497Z" fill="#CCD2E3"/>
<path d="M7.33008 17.6497C7.33008 17.1783 7.33008 16.9426 7.47652 16.7961C7.62297 16.6497 7.85867 16.6497 8.33008 16.6497H10.3301C10.8015 16.6497 11.0372 16.6497 11.1836 16.7961C11.3301 16.9426 11.3301 17.1783 11.3301 17.6497C11.3301 18.1211 11.3301 18.3568 11.1836 18.5032C11.0372 18.6497 10.8015 18.6497 10.3301 18.6497H8.33008C7.85867 18.6497 7.62297 18.6497 7.47652 18.5032C7.33008 18.3568 7.33008 18.1211 7.33008 17.6497Z" fill="#CCD2E3"/>
<path d="M13.3301 13.6497C13.3301 13.1783 13.3301 12.9426 13.4765 12.7961C13.623 12.6497 13.8587 12.6497 14.3301 12.6497H16.3301C16.8015 12.6497 17.0372 12.6497 17.1836 12.7961C17.3301 12.9426 17.3301 13.1783 17.3301 13.6497C17.3301 14.1211 17.3301 14.3568 17.1836 14.5032C17.0372 14.6497 16.8015 14.6497 16.3301 14.6497H14.3301C13.8587 14.6497 13.623 14.6497 13.4765 14.5032C13.3301 14.3568 13.3301 14.1211 13.3301 13.6497Z" fill="#CCD2E3"/>
<path d="M13.3301 17.6497C13.3301 17.1783 13.3301 16.9426 13.4765 16.7961C13.623 16.6497 13.8587 16.6497 14.3301 16.6497H16.3301C16.8015 16.6497 17.0372 16.6497 17.1836 16.7961C17.3301 16.9426 17.3301 17.1783 17.3301 17.6497C17.3301 18.1211 17.3301 18.3568 17.1836 18.5032C17.0372 18.6497 16.8015 18.6497 16.3301 18.6497H14.3301C13.8587 18.6497 13.623 18.6497 13.4765 18.5032C13.3301 18.3568 13.3301 18.1211 13.3301 17.6497Z" fill="#CCD2E3"/>
</svg>
