<svg width="11" height="19" viewBox="0 0 11 19" fill="none" xmlns="http://www.w3.org/2000/svg">
<path d="M6.12744 7.63672H10.6274L10.1274 9.63672H6.12744V18.6367H4.12744V9.63672H0.127441V7.63672H4.12744V5.76472C4.12744 3.98172 4.31344 3.33472 4.66144 2.68272C5.00245 2.03853 5.52925 1.51173 6.17344 1.17072C6.82544 0.822719 7.47244 0.636719 9.25544 0.636719C9.77744 0.636719 10.2354 0.686719 10.6274 0.786719V2.63672H9.25544C7.93144 2.63672 7.52844 2.71472 7.11744 2.93472C6.81344 3.09672 6.58744 3.32272 6.42544 3.62672C6.20544 4.03772 6.12744 4.44072 6.12744 5.76472V7.63672Z" fill="#7D7E82"/>
</svg>
