<svg width="18" height="19" viewBox="0 0 18 19" fill="none" xmlns="http://www.w3.org/2000/svg">
<path d="M9.12744 8.63672H17.6604C17.7044 9.02172 17.7274 9.41672 17.7274 9.82072C17.7274 12.5547 16.7474 14.8567 15.0494 16.4207C13.5644 17.7917 11.5314 18.5957 9.10744 18.5957C7.92811 18.5962 6.76023 18.3644 5.67055 17.9133C4.58088 17.4623 3.59077 16.8009 2.7568 15.9671C1.92284 15.1332 1.26138 14.1432 0.810221 13.0535C0.359061 11.9639 0.127048 10.7961 0.127442 9.61672C0.126917 8.4373 0.358832 7.26934 0.809933 6.1796C1.26103 5.08986 1.92248 4.0997 2.75645 3.26573C3.59043 2.43175 4.58058 1.77031 5.67032 1.31921C6.76006 0.86811 7.92802 0.636194 9.10744 0.63672C11.5274 0.63672 13.5604 1.52672 15.1154 2.97572L13.6534 4.43672C12.4954 3.31772 10.9304 2.63672 9.12744 2.63672C8.20819 2.63672 7.29794 2.81778 6.44866 3.16956C5.59938 3.52135 4.8277 4.03696 4.17769 4.68697C3.52768 5.33698 3.01207 6.10866 2.66029 6.95794C2.3085 7.80721 2.12744 8.71747 2.12744 9.63672C2.12744 10.556 2.3085 11.4662 2.66029 12.3155C3.01207 13.1648 3.52768 13.9365 4.17769 14.5865C4.8277 15.2365 5.59938 15.7521 6.44866 16.1039C7.29794 16.4557 8.20819 16.6367 9.12744 16.6367C12.6534 16.6367 15.2714 14.0287 15.7044 10.6367H9.12744V8.63672Z" fill="#7D7E82"/>
</svg>
