<svg width="21" height="21" viewBox="0 0 21 21" fill="none" xmlns="http://www.w3.org/2000/svg">
<path d="M10.1274 7.63672C9.33179 7.63672 8.56873 7.95279 8.00612 8.5154C7.44351 9.07801 7.12744 9.84107 7.12744 10.6367C7.12744 11.4324 7.44351 12.1954 8.00612 12.758C8.56873 13.3206 9.33179 13.6367 10.1274 13.6367C10.9231 13.6367 11.6862 13.3206 12.2488 12.758C12.8114 12.1954 13.1274 11.4324 13.1274 10.6367C13.1274 9.84107 12.8114 9.07801 12.2488 8.5154C11.6862 7.95279 10.9231 7.63672 10.1274 7.63672ZM10.1274 5.63672C11.4535 5.63672 12.7253 6.1635 13.663 7.10118C14.6007 8.03887 15.1274 9.31064 15.1274 10.6367C15.1274 11.9628 14.6007 13.2346 13.663 14.1723C12.7253 15.1099 11.4535 15.6367 10.1274 15.6367C8.80136 15.6367 7.52959 15.1099 6.59191 14.1723C5.65423 13.2346 5.12744 11.9628 5.12744 10.6367C5.12744 9.31064 5.65423 8.03887 6.59191 7.10118C7.52959 6.1635 8.80136 5.63672 10.1274 5.63672ZM16.6274 5.38672C16.6274 5.71824 16.4957 6.03618 16.2613 6.2706C16.0269 6.50502 15.709 6.63672 15.3774 6.63672C15.0459 6.63672 14.728 6.50502 14.4936 6.2706C14.2591 6.03618 14.1274 5.71824 14.1274 5.38672C14.1274 5.0552 14.2591 4.73726 14.4936 4.50284C14.728 4.26841 15.0459 4.13672 15.3774 4.13672C15.709 4.13672 16.0269 4.26841 16.2613 4.50284C16.4957 4.73726 16.6274 5.0552 16.6274 5.38672ZM10.1274 2.63672C7.65344 2.63672 7.24944 2.64372 6.09844 2.69472C5.31444 2.73172 4.78844 2.83672 4.30044 3.02672C3.86644 3.19472 3.55344 3.39572 3.22044 3.72972C2.90745 4.03212 2.66679 4.4013 2.51644 4.80972C2.32644 5.29972 2.22144 5.82472 2.18544 6.60772C2.13344 7.71172 2.12744 8.09772 2.12744 10.6367C2.12744 13.1107 2.13444 13.5147 2.18544 14.6657C2.22244 15.4487 2.32744 15.9757 2.51644 16.4627C2.68644 16.8977 2.88644 17.2107 3.21844 17.5427C3.55544 17.8787 3.86844 18.0797 4.29844 18.2457C4.79244 18.4367 5.31844 18.5427 6.09844 18.5787C7.20244 18.6307 7.58844 18.6367 10.1274 18.6367C12.6014 18.6367 13.0054 18.6297 14.1564 18.5787C14.9384 18.5417 15.4654 18.4367 15.9534 18.2477C16.3864 18.0787 16.7014 17.8777 17.0334 17.5457C17.3704 17.2087 17.5714 16.8957 17.7374 16.4657C17.9274 15.9727 18.0334 15.4457 18.0694 14.6657C18.1214 13.5617 18.1274 13.1757 18.1274 10.6367C18.1274 8.16272 18.1204 7.75872 18.0694 6.60772C18.0324 5.82572 17.9274 5.29772 17.7374 4.80972C17.5867 4.40172 17.3465 4.03268 17.0344 3.72972C16.7322 3.41656 16.363 3.17589 15.9544 3.02572C15.4644 2.83572 14.9384 2.73072 14.1564 2.69472C13.0524 2.64272 12.6664 2.63672 10.1274 2.63672ZM10.1274 0.636719C12.8444 0.636719 13.1834 0.646719 14.2494 0.696719C15.3144 0.746719 16.0394 0.913719 16.6774 1.16172C17.3374 1.41572 17.8934 1.75972 18.4494 2.31472C18.9579 2.81461 19.3514 3.41931 19.6024 4.08672C19.8494 4.72372 20.0174 5.44972 20.0674 6.51472C20.1144 7.58072 20.1274 7.91972 20.1274 10.6367C20.1274 13.3537 20.1174 13.6927 20.0674 14.7587C20.0174 15.8237 19.8494 16.5487 19.6024 17.1867C19.3521 17.8545 18.9586 18.4593 18.4494 18.9587C17.9494 19.467 17.3447 19.8605 16.6774 20.1117C16.0404 20.3587 15.3144 20.5267 14.2494 20.5767C13.1834 20.6237 12.8444 20.6367 10.1274 20.6367C7.41044 20.6367 7.07144 20.6267 6.00544 20.5767C4.94044 20.5267 4.21544 20.3587 3.57744 20.1117C2.90977 19.8612 2.30497 19.4677 1.80544 18.9587C1.29685 18.4589 0.903373 17.8542 0.652442 17.1867C0.404442 16.5497 0.237441 15.8237 0.187441 14.7587C0.140441 13.6927 0.127441 13.3537 0.127441 10.6367C0.127441 7.91972 0.137441 7.58072 0.187441 6.51472C0.237441 5.44872 0.404442 4.72472 0.652442 4.08672C0.902678 3.4189 1.29625 2.81404 1.80544 2.31472C2.30511 1.80595 2.90987 1.41245 3.57744 1.16172C4.21544 0.913719 4.93944 0.746719 6.00544 0.696719C7.07144 0.649719 7.41044 0.636719 10.1274 0.636719Z" fill="#7D7E82"/>
</svg>
