<svg width="25" height="25" viewBox="0 0 25 25" fill="none" xmlns="http://www.w3.org/2000/svg">
<path d="M4.46069 16.1367V10.3794C4.46069 10.2679 4.57804 10.1954 4.67778 10.2453L11.1191 13.4659C11.9636 13.8882 12.9578 13.8882 13.8023 13.4659L20.2436 10.2453C20.3433 10.1954 20.4607 10.2679 20.4607 10.3794V16.1367C20.4607 17.2413 19.5653 18.1367 18.4607 18.1367H6.46069C5.35612 18.1367 4.46069 17.2413 4.46069 16.1367Z" fill="#00ADEE"/>
<path d="M4.46069 8.13682V9.04411C4.46069 9.10093 4.49279 9.15287 4.54361 9.17828L11.1191 12.466C11.9636 12.8883 12.9578 12.8883 13.8023 12.466L20.3778 9.17828C20.4286 9.15287 20.4607 9.10093 20.4607 9.04411V8.13682C20.4607 7.03225 19.5653 6.13682 18.4607 6.13682H6.46069C5.35612 6.13682 4.46069 7.03225 4.46069 8.13682Z" fill="#CCD2E3"/>
</svg>
