<svg width="25" height="25" viewBox="0 0 25 25" fill="none" xmlns="http://www.w3.org/2000/svg">
<path d="M19.4887 18.6367C20.2347 19.0928 20.6274 19.6101 20.6274 20.1367C20.6274 20.6633 20.2347 21.1807 19.4887 21.6367C18.7426 22.0928 17.6696 22.4715 16.3774 22.7348C15.0853 22.9981 13.6195 23.1367 12.1274 23.1367C10.6354 23.1367 9.16961 22.9981 7.87744 22.7348C6.58528 22.4715 5.51226 22.0928 4.76623 21.6367C4.02019 21.1807 3.62744 20.6633 3.62744 20.1367C3.62744 19.6101 4.02019 19.0928 4.76623 18.6367" stroke="#CCD2E3" stroke-linecap="round"/>
<path d="M19.1274 10.6367C19.1274 15.6531 14.0084 18.6715 12.5255 19.4407C12.2726 19.5718 11.9823 19.5718 11.7294 19.4407C10.2465 18.6715 5.12744 15.6531 5.12744 10.6367C5.12744 6.77073 8.26145 3.63672 12.1274 3.63672C15.9934 3.63672 19.1274 6.77073 19.1274 10.6367Z" fill="#CCD2E3"/>
<circle cx="12.1274" cy="10.6367" r="3" fill="#00ADEE"/>
</svg>
