<svg width="25" height="25" viewBox="0 0 25 25" fill="none" xmlns="http://www.w3.org/2000/svg">
<path d="M18.1678 13.8438L20.8159 16.492C21.172 16.848 21.172 17.4254 20.8159 17.7815C18.8907 19.7067 15.8428 19.9233 13.6647 18.2897L12.0893 17.1081C10.3457 15.8005 8.79691 14.2517 7.48926 12.5081L6.3077 10.9327C4.6741 8.75459 4.89071 5.70671 6.81592 3.78149C7.17202 3.42539 7.74937 3.42539 8.10546 3.78149L10.7536 6.42961C11.1441 6.82014 11.1441 7.4533 10.7536 7.84382L9.73244 8.86497C9.57015 9.02726 9.52992 9.27518 9.63256 9.48045C10.8192 11.8538 12.7436 13.7782 15.117 14.9649C15.3222 15.0675 15.5702 15.0273 15.7324 14.865L16.7536 13.8438C17.1441 13.4533 17.7773 13.4533 18.1678 13.8438Z" fill="#CCD2E3"/>
<path fill-rule="evenodd" clip-rule="evenodd" d="M20.816 17.7815C21.1721 17.4254 21.1721 16.848 20.816 16.4919L18.1678 13.8438C18.1678 13.8438 18.1677 13.8437 18.1676 13.8436C17.7771 13.4533 17.1441 13.4534 16.7536 13.8438L15.9607 14.6367L19.8655 18.5415C20.2037 18.3281 20.5228 18.0746 20.816 17.7815ZM6.05591 4.73189L9.96072 8.63671L10.7536 7.84381C11.1441 7.45329 11.1441 6.82013 10.7536 6.4296L8.10549 3.78148C7.7494 3.42538 7.17205 3.42538 6.81596 3.78148C6.52283 4.0746 6.26932 4.39375 6.05591 4.73189Z" fill="#00ADEE"/>
</svg>
