<svg width="21" height="17" viewBox="0 0 21 17" fill="none" xmlns="http://www.w3.org/2000/svg">
<path d="M14.4275 2.18683C13.6674 2.18671 12.9377 2.48496 12.3954 3.0174C11.853 3.54985 11.5414 4.27393 11.5275 5.03383L11.4995 6.60883C11.4978 6.6934 11.4783 6.77666 11.4422 6.85316C11.4062 6.92966 11.3543 6.99766 11.2901 7.05271C11.2259 7.10776 11.1508 7.14862 11.0697 7.17259C10.9885 7.19657 10.9033 7.20313 10.8195 7.19183L9.25846 6.97983C7.20446 6.69983 5.23646 5.75383 3.34846 4.18083C2.75046 7.49083 3.91846 9.78383 6.73146 11.5528L8.47846 12.6508C8.56147 12.703 8.63043 12.7747 8.67931 12.8597C8.72819 12.9447 8.7555 13.0403 8.75886 13.1383C8.76221 13.2363 8.74151 13.3336 8.69855 13.4217C8.6556 13.5099 8.59171 13.5861 8.51246 13.6438L6.92046 14.8068C7.86746 14.8658 8.76646 14.8238 9.51246 14.6758C14.2305 13.7338 17.3675 10.1838 17.3675 4.32783C17.3675 3.84983 16.3555 2.18683 14.4275 2.18683ZM9.52746 4.99683C9.54492 4.03288 9.84635 3.0955 10.394 2.30205C10.9417 1.50861 11.7113 0.894353 12.6064 0.5362C13.5015 0.178048 14.4824 0.0919127 15.4262 0.28858C16.37 0.485248 17.2349 0.955978 17.9125 1.64183C18.6235 1.63683 19.2285 1.81683 20.5815 0.996833C20.2465 2.63683 20.0815 3.34883 19.3675 4.32783C19.3675 11.9698 14.6705 15.6858 9.90446 16.6368C6.63646 17.2888 1.88446 16.2178 0.522461 14.7958C1.21646 14.7418 4.03646 14.4388 5.66646 13.2458C4.28746 12.3368 -1.20154 9.10683 2.40546 0.422833C4.09846 2.39983 5.81546 3.74583 7.55546 4.45983C8.71346 4.93483 8.99746 4.92483 9.52846 4.99783L9.52746 4.99683Z" fill="#7D7E82"/>
</svg>
