<svg width="21" height="21" viewBox="0 0 21 21" fill="none" xmlns="http://www.w3.org/2000/svg">
<path d="M5.38045 17.1307L6.10445 17.5537C7.32539 18.2658 8.71404 18.6396 10.1275 18.6367C11.7097 18.6367 13.2564 18.1675 14.572 17.2885C15.8876 16.4094 16.913 15.16 17.5185 13.6982C18.124 12.2364 18.2824 10.6278 17.9737 9.076C17.6651 7.52415 16.9031 6.09868 15.7843 4.97986C14.6655 3.86104 13.24 3.09912 11.6882 2.79044C10.1363 2.48176 8.5278 2.64018 7.06599 3.24568C5.60418 3.85118 4.35475 4.87656 3.4757 6.19216C2.59665 7.50775 2.12745 9.05447 2.12745 10.6367C2.12745 12.0727 2.50445 13.4497 3.21145 14.6607L3.63345 15.3847L2.98045 17.7857L5.38045 17.1307ZM0.131455 20.6367L1.48345 15.6687C0.592593 14.1416 0.124551 12.4047 0.127455 10.6367C0.127455 5.11372 4.60445 0.636719 10.1275 0.636719C15.6505 0.636719 20.1275 5.11372 20.1275 10.6367C20.1275 16.1597 15.6505 20.6367 10.1275 20.6367C8.36023 20.6396 6.62411 20.1719 5.09745 19.2817L0.131455 20.6367ZM6.51845 5.94472C6.65245 5.93472 6.78745 5.93472 6.92145 5.94072C6.97545 5.94472 7.02946 5.95072 7.08346 5.95672C7.24246 5.97472 7.41745 6.07172 7.47645 6.20572C7.77445 6.88172 8.06445 7.56272 8.34445 8.24572C8.40646 8.39772 8.36945 8.59272 8.25145 8.78272C8.1703 8.9112 8.08252 9.03537 7.98845 9.15472C7.87545 9.29972 7.63245 9.56572 7.63245 9.56572C7.63245 9.56572 7.53345 9.68372 7.57146 9.83072C7.58545 9.88672 7.63145 9.96772 7.67345 10.0357L7.73245 10.1307C7.98845 10.5577 8.33245 10.9907 8.75245 11.3987C8.87245 11.5147 8.98945 11.6337 9.11545 11.7447C9.58346 12.1577 10.1135 12.4947 10.6855 12.7447L10.6905 12.7467C10.7755 12.7837 10.8185 12.8037 10.9425 12.8567C11.0045 12.8827 11.0685 12.9057 11.1335 12.9227C11.2006 12.9398 11.2714 12.9366 11.3367 12.9135C11.402 12.8903 11.459 12.8483 11.5005 12.7927C12.2245 11.9157 12.2905 11.8587 12.2965 11.8587V11.8607C12.3468 11.8138 12.4065 11.7782 12.4717 11.7563C12.5369 11.7344 12.606 11.7267 12.6745 11.7337C12.7345 11.7377 12.7955 11.7487 12.8515 11.7737C13.3825 12.0167 14.2515 12.3957 14.2515 12.3957L14.8335 12.6567C14.9315 12.7037 15.0205 12.8147 15.0235 12.9217C15.0275 12.9887 15.0335 13.0967 15.0105 13.2947C14.9785 13.5537 14.9005 13.8647 14.8225 14.0277C14.769 14.139 14.6981 14.2409 14.6125 14.3297C14.5115 14.4357 14.4011 14.5321 14.2825 14.6177C14.2414 14.6486 14.1997 14.6786 14.1575 14.7077C14.0331 14.7866 13.9053 14.86 13.7745 14.9277C13.517 15.0645 13.2326 15.143 12.9415 15.1577C12.7565 15.1677 12.5715 15.1817 12.3855 15.1717C12.3775 15.1717 11.8175 15.0847 11.8175 15.0847C10.3957 14.7108 9.08084 14.0102 7.97746 13.0387C7.75146 12.8397 7.54246 12.6257 7.32845 12.4127C6.43846 11.5277 5.76645 10.5727 5.35845 9.67072C5.14962 9.22801 5.03682 8.74612 5.02745 8.25672C5.02333 7.64957 5.2218 7.05839 5.59145 6.57672C5.66445 6.48272 5.73345 6.38472 5.85245 6.27172C5.97945 6.15172 6.05945 6.08772 6.14645 6.04372C6.26213 5.98575 6.38832 5.95174 6.51746 5.94372L6.51845 5.94472Z" fill="#7D7E82"/>
</svg>
