<svg width="21" height="17" viewBox="0 0 21 17" fill="none" xmlns="http://www.w3.org/2000/svg">
<path d="M17.7334 3.63172C17.6574 3.33372 17.4414 3.10872 17.1944 3.03972C16.7574 2.91672 14.6274 2.63672 10.1274 2.63672C5.62744 2.63672 3.49944 2.91672 3.05844 3.03972C2.81444 3.10772 2.59844 3.33272 2.52144 3.63172C2.41244 4.05572 2.12744 5.83272 2.12744 8.63672C2.12744 11.4407 2.41244 13.2167 2.52144 13.6427C2.59744 13.9397 2.81344 14.1647 3.05944 14.2327C3.49944 14.3567 5.62744 14.6367 10.1274 14.6367C14.6274 14.6367 16.7564 14.3567 17.1964 14.2337C17.4404 14.1657 17.6564 13.9407 17.7334 13.6417C17.8424 13.2177 18.1274 11.4367 18.1274 8.63672C18.1274 5.83672 17.8424 4.05672 17.7334 3.63172ZM19.6704 3.13472C20.1274 4.91672 20.1274 8.63672 20.1274 8.63672C20.1274 8.63672 20.1274 12.3567 19.6704 14.1387C19.4164 15.1237 18.6734 15.8987 17.7324 16.1607C16.0234 16.6367 10.1274 16.6367 10.1274 16.6367C10.1274 16.6367 4.23444 16.6367 2.52244 16.1607C1.57744 15.8947 0.835441 15.1207 0.584441 14.1387C0.127441 12.3567 0.127441 8.63672 0.127441 8.63672C0.127441 8.63672 0.127441 4.91672 0.584441 3.13472C0.838441 2.14972 1.58144 1.37472 2.52244 1.11272C4.23444 0.636719 10.1274 0.636719 10.1274 0.636719C10.1274 0.636719 16.0234 0.636719 17.7324 1.11272C18.6774 1.37872 19.4194 2.15272 19.6704 3.13472ZM8.12744 12.1367V5.13672L14.1274 8.63672L8.12744 12.1367Z" fill="#7D7E82"/>
</svg>
